<svg width="38" height="42" viewBox="0 0 38 42" fill="none" xmlns="http://www.w3.org/2000/svg">
<path d="M9.92529 25.5263L13.5174 14.75C13.6075 14.4811 13.7799 14.2473 14.0102 14.0817C14.2404 13.916 14.5169 13.8269 14.8005 13.8269C15.0842 13.8269 15.3607 13.916 15.5909 14.0817C15.8211 14.2473 15.9935 14.4811 16.0837 14.75L19.6758 25.5263M25.5261 13.8257V25.5263M11.8754 21.6261H17.7257" stroke="#194EFF" stroke-width="2.3" stroke-linecap="round" stroke-linejoin="round"/>
<path d="M36.2517 19.0578V13.3966C36.2517 10.1985 36.2517 8.5994 35.4638 7.55609C34.676 6.51279 32.8936 6.00577 29.3308 4.99367C27.1818 4.37647 25.0779 3.61218 23.0339 2.7062C20.6957 1.66875 19.5276 1.15002 18.7008 1.15002C17.8739 1.15002 16.7058 1.66875 14.3677 2.7062C12.6516 3.46674 10.5065 4.30138 8.0708 4.99367C4.50797 6.00772 2.72753 6.51474 1.93774 7.55609C1.1499 8.5994 1.1499 10.1985 1.1499 13.3966V19.0578C1.1499 30.0271 11.0232 36.6086 15.9589 39.214C17.1427 39.838 17.7335 40.15 18.7008 40.15C19.668 40.15 20.2589 39.838 21.4426 39.214C26.3783 36.6086 36.2517 30.031 36.2517 19.0578Z" stroke="#194EFF" stroke-width="2.3" stroke-linecap="round"/>
</svg>
