<svg width="51" height="49" viewBox="0 0 51 49" fill="none" xmlns="http://www.w3.org/2000/svg">
<path d="M33.2216 9.98939C33.2216 11.3894 33.2448 12.7895 33.21 14.178C33.1985 14.6871 33.4068 14.9879 33.8233 15.2309C36.2068 16.5846 38.602 17.95 40.9739 19.3385C41.4252 19.6046 41.7839 19.593 42.2236 19.3385C44.6303 17.9268 47.0485 16.5384 49.4783 15.1499C49.837 14.9416 49.9874 14.6639 49.9874 14.2589C49.9759 11.4473 49.9759 8.63562 49.9874 5.83553C49.9874 5.39585 49.8255 5.10658 49.4321 4.87517C47.0022 3.4867 44.5724 2.07508 42.1426 0.663463C41.7607 0.443621 41.4136 0.443621 41.0318 0.675034C38.602 2.08665 36.1837 3.4867 33.7423 4.88674C33.372 5.10658 33.1985 5.37271 33.21 5.80082C33.2332 7.1893 33.2216 8.58934 33.2216 9.98939ZM17.2773 11.1349C17.2773 9.72326 17.2657 8.31165 17.2773 6.90003C17.2773 6.47192 17.1385 6.18265 16.7566 5.97438C14.2921 4.57433 11.8391 3.16272 9.38614 1.73953C9.03902 1.54283 8.74976 1.54283 8.40264 1.73953C5.94967 3.16272 3.49669 4.57433 1.03215 5.97438C0.673463 6.18265 0.511475 6.44878 0.511475 6.86532C0.523045 9.70012 0.523045 12.5465 0.511475 15.3813C0.511475 15.7747 0.661891 16.0524 1.00901 16.2491C3.48512 17.6723 5.97281 19.107 8.44892 20.5418C8.76133 20.7269 9.05059 20.7269 9.363 20.5418C11.8391 19.107 14.3268 17.6839 16.8029 16.2491C17.1385 16.0524 17.2889 15.7863 17.2889 15.3813C17.2657 13.9581 17.2773 12.5465 17.2773 11.1349ZM16.2591 38.9391C16.2591 40.3623 16.2707 41.797 16.2591 43.2202C16.2591 43.6252 16.4211 43.8798 16.7566 44.0765C19.198 45.4765 21.6394 46.8881 24.0808 48.3113C24.4627 48.5312 24.8098 48.5312 25.1916 48.3113C27.6099 46.9113 30.0166 45.5112 32.4464 44.1227C32.8514 43.8913 33.0134 43.5905 33.0134 43.1277C33.0018 40.3276 33.0018 37.539 33.0134 34.739C33.0134 34.2761 32.8398 33.9869 32.4348 33.7555C30.0397 32.3901 27.6446 31.0016 25.261 29.6132C24.8214 29.3586 24.4395 29.3586 23.9998 29.6247C21.6047 31.0248 19.198 32.4133 16.7913 33.7902C16.4095 34.01 16.2591 34.2877 16.2707 34.7158C16.2707 36.1159 16.2591 37.5275 16.2591 38.9391ZM24.7751 12.6738C19.8576 12.6738 16.4442 16.7003 16.5252 21.0509C16.6178 25.5635 20.4245 29.1735 25.0528 29.0115C29.6116 28.8495 32.9555 24.9965 32.8861 20.7385C32.8166 16.1334 29.0215 12.6622 24.7751 12.6738ZM41.0434 25.0659C41.0434 23.4113 40.8004 21.803 40.326 20.2294C40.2681 20.0211 40.1524 19.8013 40.002 19.6509C39.7706 19.431 39.4582 19.4079 39.1805 19.6046C38.8565 19.836 38.8334 20.16 38.9375 20.5071C39.8632 23.5502 39.8516 26.5932 38.8912 29.6247C37.9887 32.4364 36.3573 34.7621 34.0894 36.6481C33.6844 36.9837 33.6034 37.4233 33.8927 37.7473C34.182 38.0829 34.5754 38.0944 34.9804 37.7589C38.9144 34.4497 40.9277 30.2033 41.0434 25.0659ZM9.7564 22.37C9.83739 21.9418 9.62912 21.6642 9.25886 21.6063C8.86546 21.5484 8.52992 21.7683 8.46049 22.1733C8.35636 22.7286 8.27536 23.284 8.24065 23.851C7.99766 28.0396 9.08531 31.8463 11.7003 35.1439C12.4524 36.0927 13.3896 36.9142 14.2805 37.7589C14.7433 38.1986 15.4029 38.0019 15.507 37.4465C15.5764 37.0647 15.3682 36.8217 15.0905 36.5903C11.6771 33.7439 9.84897 30.0876 9.66384 25.656C9.60598 24.5684 9.72169 23.4576 9.7564 22.37ZM24.6709 8.58934C24.0114 8.63562 23.3519 8.67033 22.6924 8.72819C21.2229 8.86703 19.8113 9.26044 18.4575 9.81583C18.0525 9.97782 17.9137 10.3365 18.0641 10.7183C18.203 11.0886 18.5616 11.2506 18.9666 11.1233C19.0476 11.1002 19.1286 11.0655 19.2096 11.0423C21.2807 10.2324 23.4213 9.91996 25.6313 10.0704C27.6446 10.1977 29.5306 10.7415 31.3472 11.6093C31.8216 11.8407 32.215 11.725 32.4001 11.3431C32.5968 10.9382 32.4232 10.5679 31.9489 10.3249C29.6347 9.19101 27.228 8.60091 24.6709 8.58934Z" stroke="#194EFF" stroke-miterlimit="10"/>
<path d="M33.2217 9.98953C33.2217 8.58949 33.2332 7.18944 33.2217 5.80096C33.2217 5.37285 33.3837 5.09516 33.7539 4.88689C36.1837 3.49841 38.6136 2.08679 41.0434 0.675176C41.4252 0.455334 41.7608 0.443763 42.1542 0.663605C44.584 2.07522 47.0023 3.47527 49.4437 4.87531C49.8371 5.09516 49.9991 5.38442 49.9991 5.83567C49.9875 8.64734 49.9875 11.459 49.9991 14.2591C49.9991 14.6641 49.8487 14.9418 49.49 15.15C47.0717 16.5385 44.6534 17.927 42.2352 19.3386C41.7955 19.5932 41.4252 19.6047 40.9856 19.3386C38.6136 17.9501 36.23 16.5848 33.8349 15.231C33.4068 14.988 33.2101 14.6872 33.2217 14.1781C33.2332 12.7896 33.2217 11.3896 33.2217 9.98953ZM42.293 17.6377C42.4319 17.5799 42.5013 17.5452 42.5707 17.5104C44.4915 16.3997 46.4006 15.3005 48.3098 14.1781C48.437 14.0971 48.5412 13.8773 48.5412 13.7153C48.5527 11.54 48.5527 9.36472 48.5527 7.20101C48.5527 7.09688 48.5412 6.99274 48.5296 6.84232C46.47 8.0341 44.4567 9.19116 42.455 10.3598C42.374 10.4061 42.3046 10.5565 42.3046 10.6606C42.293 12.9632 42.293 15.2657 42.293 17.6377ZM47.8122 5.6274C47.7197 5.55798 47.6734 5.5117 47.6155 5.47699C45.6832 4.35464 43.7625 3.24385 41.8302 2.14464C41.7029 2.07522 41.4484 2.09836 41.3095 2.17936C39.4235 3.25543 37.5491 4.34306 35.6631 5.4307C35.5705 5.48856 35.4895 5.55798 35.3738 5.63898C37.4102 6.80761 39.4004 7.9531 41.4021 9.07545C41.5178 9.1333 41.7261 9.11017 41.8534 9.05231C42.536 8.68205 43.1955 8.28865 43.8782 7.89525C45.1741 7.13159 46.4816 6.39107 47.8122 5.6274ZM40.8814 17.6609C40.8814 17.441 40.8814 17.3253 40.8814 17.198C40.8814 15.0806 40.8699 12.9632 40.893 10.8458C40.893 10.5334 40.7773 10.3714 40.5227 10.2209C38.683 9.17959 36.8548 8.11509 35.0267 7.05059C34.9226 6.99274 34.8068 6.93489 34.6796 6.86546C34.668 6.95803 34.6564 7.00431 34.6564 7.06216C34.6564 9.30687 34.6449 11.5516 34.668 13.7963C34.668 13.9467 34.83 14.1434 34.9688 14.2244C36.1606 14.9302 37.3524 15.6129 38.5557 16.3071C39.2847 16.7468 40.0483 17.1749 40.8814 17.6609Z" fill="#194EFF" stroke="#194EFF" stroke-miterlimit="10"/>
<path d="M17.2774 11.135C17.2774 12.5466 17.2658 13.9582 17.2774 15.3699C17.2774 15.7748 17.127 16.041 16.7914 16.2377C14.3153 17.6724 11.8276 19.0956 9.35152 20.5304C9.03912 20.7155 8.74985 20.7155 8.43744 20.5304C5.96133 19.0956 3.48522 17.6724 0.997539 16.2377C0.661991 16.041 0.5 15.7633 0.5 15.3699C0.511571 12.5351 0.511571 9.68869 0.5 6.85388C0.5 6.43734 0.661989 6.17121 1.02068 5.96294C3.48522 4.5629 5.93819 3.15128 8.39116 1.72809C8.73828 1.53139 9.02755 1.53139 9.37467 1.72809C11.8276 3.15128 14.2806 4.5629 16.7451 5.96294C17.127 6.18278 17.2658 6.46048 17.2658 6.88859C17.2658 8.31178 17.2774 9.7234 17.2774 11.135ZM8.18289 18.7138C8.19446 18.6212 8.20603 18.5634 8.20603 18.5171C8.20603 16.2724 8.2176 14.0277 8.19446 11.783C8.19446 11.6326 8.03247 11.4359 7.89362 11.3549C6.03075 10.2672 4.16789 9.19115 2.30502 8.11508C2.20088 8.05723 2.09675 8.01094 1.94633 7.94152C1.94633 10.2556 1.94633 12.5119 1.93476 14.7682C1.93476 15.0459 2.01575 15.1963 2.25874 15.3236C4.1216 16.3881 5.9729 17.4641 7.8242 18.5286C7.92834 18.5981 8.03247 18.6444 8.18289 18.7138ZM15.1368 6.69189C15.0211 6.6109 14.9748 6.56462 14.917 6.54147C12.9963 5.43069 11.0871 4.31991 9.16639 3.23227C9.02754 3.15128 8.74985 3.17442 8.611 3.26699C6.72499 4.34306 4.85055 5.4307 2.96454 6.51833C2.88355 6.56462 2.81412 6.62247 2.7447 6.66875C2.75627 6.71503 2.76784 6.73818 2.76784 6.73818C4.75799 7.89524 6.73656 9.0523 8.72671 10.1978C8.81927 10.2556 9.0044 10.2441 9.10854 10.1862C11.0871 9.02916 13.0773 7.88367 15.1368 6.69189ZM9.64079 18.6906C9.73335 18.6559 9.77964 18.6444 9.81435 18.6328C11.7582 17.5104 13.7021 16.3997 15.6344 15.2542C15.7616 15.1847 15.8542 14.9418 15.8542 14.7798C15.8658 12.6276 15.8658 10.4871 15.8658 8.33492C15.8658 8.21922 15.8426 8.10351 15.8311 7.94152C13.7946 9.11015 11.7929 10.2556 9.81435 11.4127C9.69864 11.4821 9.62922 11.7135 9.62922 11.8755C9.61765 14.0277 9.61765 16.1682 9.62922 18.3204C9.61765 18.4361 9.62922 18.5402 9.64079 18.6906Z" fill="#194EFF" stroke="#194EFF" stroke-miterlimit="10"/>
<path d="M16.2592 38.9391C16.2592 37.5275 16.2708 36.1159 16.2477 34.7043C16.2477 34.2761 16.3865 33.9984 16.7683 33.7786C19.175 32.4017 21.5817 31.0132 23.9768 29.6132C24.4165 29.3586 24.7868 29.3471 25.238 29.6016C27.6216 30.9901 30.0167 32.3786 32.4118 33.7439C32.8168 33.9753 32.9903 34.2646 32.9903 34.7274C32.9788 37.5275 32.9788 40.316 32.9903 43.1161C32.9903 43.5789 32.8168 43.8798 32.4234 44.1112C30.0051 45.4997 27.5869 46.8997 25.1686 48.2997C24.7868 48.5196 24.4397 48.5312 24.0578 48.2997C21.6164 46.8766 19.175 45.4765 16.7336 44.0649C16.3981 43.8682 16.2361 43.6136 16.2361 43.2087C16.2708 41.7855 16.2592 40.3623 16.2592 38.9391ZM31.5787 35.7919C31.463 35.8382 31.3936 35.8613 31.3242 35.9076C29.4034 37.0068 27.4827 38.106 25.5736 39.2168C25.4579 39.2862 25.3422 39.4945 25.3422 39.6333C25.3306 41.8202 25.3306 44.007 25.3306 46.1939C25.3306 46.298 25.3537 46.4022 25.3653 46.5179C25.4463 46.4832 25.481 46.4716 25.5157 46.46C27.4596 45.3377 29.3919 44.2269 31.3242 43.093C31.4514 43.012 31.5672 42.7921 31.5672 42.6301C31.5787 40.4549 31.5787 38.2796 31.5787 36.1159C31.5903 36.0117 31.5787 35.9192 31.5787 35.7919ZM18.3767 34.5076C20.4478 35.7109 22.4495 36.868 24.4512 38.0135C24.5554 38.0713 24.7752 38.025 24.8909 37.9556C25.7818 37.4581 26.6496 36.949 27.529 36.4399C28.6282 35.8035 29.7159 35.1787 30.8266 34.5307C30.7688 34.4728 30.7456 34.4381 30.7225 34.415C28.7555 33.2811 26.8001 32.1356 24.8215 31.0132C24.7058 30.9554 24.4975 30.9785 24.3702 31.0479C23.5024 31.5339 22.6578 32.0314 21.8016 32.529C20.6792 33.1654 19.5569 33.8133 18.3767 34.5076ZM17.7056 35.7688C17.6824 35.8729 17.6708 35.9192 17.6708 35.9655C17.6708 38.2102 17.6593 40.4549 17.6824 42.6996C17.6824 42.85 17.8675 43.0698 18.018 43.1508C19.8345 44.2269 21.6743 45.2798 23.5024 46.3327C23.6181 46.4022 23.7454 46.46 23.9074 46.541C23.9074 46.3559 23.9074 46.2402 23.9074 46.1129C23.9074 43.9839 23.8958 41.8549 23.919 39.7143C23.919 39.4135 23.8148 39.2747 23.5719 39.1242C21.79 38.106 20.0081 37.0647 18.2262 36.0349C18.0527 35.9539 17.9023 35.8729 17.7056 35.7688Z" fill="#194EFF" stroke="#194EFF" stroke-miterlimit="10"/>
<path d="M24.775 12.6737C29.033 12.6622 32.8166 16.1334 32.8976 20.75C32.967 24.9965 29.6231 28.861 25.0643 29.023C20.436 29.185 16.6293 25.575 16.5367 21.0624C16.4326 16.7003 19.8459 12.6853 24.775 12.6737ZM31.4744 20.8657C31.5323 17.1747 28.4776 14.1201 24.694 14.0854C21.1071 14.0506 18.0178 17.059 17.9484 20.6459C17.8905 24.4873 20.841 27.5536 24.6709 27.6114C28.3851 27.6808 31.4166 24.6725 31.4744 20.8657Z" fill="#194EFF" stroke="#194EFF" stroke-miterlimit="10"/>
<path d="M41.0435 25.0659C40.9277 30.2033 38.9145 34.4497 34.9805 37.7589C34.5871 38.0945 34.1821 38.0829 33.8928 37.7473C33.6035 37.4118 33.6845 36.9837 34.0895 36.6481C36.3689 34.7621 38.0004 32.4364 38.8913 29.6248C39.8517 26.6048 39.8633 23.5502 38.9376 20.5071C38.8335 20.1484 38.845 19.836 39.1806 19.6046C39.4583 19.4079 39.7591 19.431 40.0021 19.6509C40.1525 19.7897 40.2567 20.0211 40.3261 20.2294C40.8005 21.803 41.0435 23.4113 41.0435 25.0659Z" fill="#194EFF" stroke="#194EFF" stroke-miterlimit="10"/>
<path d="M9.75649 22.37C9.72178 23.4692 9.60608 24.5684 9.65236 25.656C9.83749 30.0992 11.6772 33.7439 15.079 36.5903C15.3567 36.8217 15.5649 37.0647 15.4955 37.4465C15.3914 38.0019 14.7434 38.1986 14.269 37.7589C13.3781 36.9142 12.4524 36.0927 11.6888 35.1439C9.07383 31.8463 7.98619 28.0396 8.22917 23.851C8.26389 23.2956 8.34488 22.7287 8.44902 22.1733C8.53001 21.7567 8.85399 21.5485 9.24739 21.6063C9.62922 21.6526 9.83749 21.9419 9.75649 22.37Z" fill="#194EFF" stroke="#194EFF" stroke-miterlimit="10"/>
<path d="M24.6712 8.58936C27.2283 8.6125 29.635 9.19103 31.9259 10.3249C32.4119 10.5679 32.5855 10.9382 32.3772 11.3432C32.1921 11.725 31.7987 11.8291 31.3243 11.6093C29.5193 10.7415 27.6217 10.1977 25.6084 10.0704C23.3984 9.93155 21.2578 10.2324 19.1867 11.0423C19.1057 11.077 19.0247 11.1002 18.9437 11.1233C18.5387 11.239 18.1801 11.077 18.0412 10.7184C17.9024 10.3365 18.0412 9.9894 18.4346 9.81584C19.7999 9.26045 21.2 8.86705 22.6695 8.7282C23.3405 8.65878 24.0116 8.63564 24.6712 8.58936Z" fill="#194EFF" stroke="#194EFF" stroke-miterlimit="10"/>
<path d="M24.0694 25.089C22.7966 24.7998 21.9635 24.0708 21.6048 22.8328C21.5123 22.5204 21.5701 22.1964 21.8594 22.0575C22.0677 21.9534 22.3801 21.9303 22.5999 21.9997C22.7503 22.046 22.8892 22.3005 22.9586 22.4857C23.3636 23.5964 24.9025 24.1403 25.9091 23.527C26.5918 23.1105 26.6496 22.3931 25.9669 21.965C25.6314 21.7451 25.1917 21.6641 24.7983 21.5484C24.3355 21.4096 23.8495 21.3633 23.4214 21.1897C22.542 20.8426 21.9982 20.1715 21.9519 19.1996C21.8941 18.1814 22.3916 17.4524 23.2594 16.9549C23.3173 16.9202 23.3867 16.8855 23.4561 16.8623C23.9537 16.7698 24.1388 16.5036 24.0809 15.983C24.0347 15.5664 24.3586 15.2772 24.7405 15.254C25.1107 15.2424 25.4926 15.5201 25.4578 15.9251C25.4 16.5383 25.724 16.7003 26.1984 16.9086C26.9505 17.2326 27.4364 17.869 27.7488 18.6211C27.9108 19.026 27.7604 19.4194 27.4017 19.5814C27.0546 19.7318 26.6265 19.5583 26.4645 19.1649C26.1868 18.4822 25.7124 18.0078 24.9719 17.9731C24.5785 17.9615 24.1156 18.0657 23.7801 18.2739C23.1553 18.6442 23.2016 19.4541 23.8611 19.7666C24.2661 19.9633 24.7405 20.0558 25.1917 20.1368C25.8281 20.2409 26.4298 20.4492 26.9273 20.8542C27.6215 21.4212 28.0034 22.1385 27.8298 23.041C27.6447 24.013 27.0083 24.6494 26.0942 24.9386C25.6661 25.0775 25.4231 25.1816 25.4694 25.7023C25.5157 26.1535 25.1223 26.4775 24.7289 26.4428C24.3355 26.4197 24.0809 26.1188 24.0694 25.656C24.0578 25.5056 24.0694 25.3205 24.0694 25.089Z" fill="#194EFF" stroke="#194EFF" stroke-miterlimit="10"/>
</svg>
