<svg width="42" height="42" viewBox="0 0 42 42" fill="none" xmlns="http://www.w3.org/2000/svg">
<path d="M4.74173 8.9901L9.87924 4.25613C10.0606 4.08794 10.2736 3.95752 10.5057 3.87243C10.7378 3.78733 10.9845 3.74927 11.2315 3.76044C11.4784 3.77161 11.7207 3.83179 11.9442 3.93749C12.1677 4.0432 12.3681 4.19232 12.5336 4.37619L16.0785 8.30401C15.9072 8.52699 15.3764 9.04155 14.6914 9.89915L12.585 12.6606C12.5295 12.7285 12.4835 12.8035 12.448 12.8836C11.8632 13.9162 11.4989 15.0592 11.378 16.2402C11.2571 17.4212 11.3824 18.6145 11.7459 19.7444C12.5792 22.0264 13.9001 24.0986 15.6161 25.8163C17.196 27.6722 19.199 29.1195 21.4558 30.0357C22.5191 30.457 23.6676 30.6177 24.8055 30.5043C25.9435 30.3909 27.0379 30.0068 27.9975 29.3839L30.9088 27.48C31.8164 26.8797 32.3815 26.3823 32.6213 26.2279L36.1661 30.0871C36.3373 30.2666 36.4707 30.4787 36.5584 30.7107C36.6461 30.9428 36.6864 31.1902 36.6768 31.4382C36.6672 31.6862 36.6079 31.9297 36.5026 32.1543C36.3972 32.3789 36.2479 32.58 36.0634 32.7457L30.9259 37.4968C29.4703 38.8175 26.4734 38.9547 23.1683 37.9599C20.0469 37.0305 17.1931 35.3661 14.8455 33.1059L7.75573 25.4732C5.70434 22.9388 4.28387 19.9523 3.61148 16.76C2.90935 13.381 3.2861 10.3966 4.74173 8.9901ZM2.54973 6.69172C-0.258779 9.26453 -0.378653 13.5525 0.443348 17.4289C1.19356 21.2213 2.89029 24.7618 5.37535 27.7201L12.4137 35.4043C15.1315 38.126 18.4968 40.1094 22.1921 41.1673C26.0281 42.3337 30.2409 42.5567 33.0494 39.9667L38.1869 35.2327C39.1807 34.3107 39.7707 33.0328 39.8284 31.6772C39.8861 30.3216 39.4069 28.998 38.4951 27.9946L35.0188 24.1354C34.5744 23.5979 33.977 23.209 33.3063 23.0205C32.6432 22.8915 31.9561 22.9881 31.354 23.2949C30.5856 23.7451 29.8579 24.2616 29.1791 24.8386L26.285 26.7596C25.7545 27.1209 25.1392 27.3377 24.4997 27.3888C23.8602 27.4399 23.2184 27.3236 22.6374 27.0512C20.8656 26.2745 19.2955 25.1009 18.0479 23.6208C16.668 22.2298 15.5946 20.5645 14.8969 18.7325C14.6384 18.0271 14.5411 17.2726 14.6123 16.5246C14.6834 15.7765 14.9211 15.054 15.3079 14.4101L17.3457 11.8545C17.9723 11.2169 18.5451 10.5285 19.0582 9.79624C19.4112 9.22179 19.562 8.54548 19.4864 7.87521C19.3665 7.17298 19.0313 6.52555 18.5274 6.02279L14.914 2.24934C13.9934 1.25398 12.7175 0.663086 11.3641 0.605265C10.0106 0.547444 8.68913 1.02737 7.68723 1.9406L2.54973 6.69172Z" fill="#194EFF"/>
<path d="M5.08378 4.30774C4.79978 4.62291 4.64258 5.03237 4.64258 5.45693C4.64258 5.88148 4.79978 6.29094 5.08378 6.60611L12.1735 14.3417C12.4775 14.6381 12.8805 14.811 13.3044 14.8269C13.7284 14.8427 14.1431 14.7004 14.4683 14.4274C14.6249 14.2846 14.7518 14.1122 14.8417 13.9201C14.9316 13.7281 14.9828 13.5201 14.9924 13.3082C15.0019 13.0963 14.9696 12.8845 14.8973 12.6852C14.825 12.4858 14.7141 12.3026 14.571 12.1462L7.39566 4.41065C7.25259 4.24869 7.07846 4.11721 6.88362 4.02403C6.68877 3.93086 6.47721 3.87789 6.26151 3.86829C6.04581 3.85869 5.83039 3.89264 5.62806 3.96814C5.42573 4.04363 5.24063 4.15913 5.08378 4.30774Z" fill="#194EFF"/>
<path d="M26.371 27.4801C26.087 27.7953 25.9298 28.2047 25.9298 28.6293C25.9298 29.0538 26.087 29.4633 26.371 29.7785L33.4779 37.514C33.7686 37.8302 34.1727 38.0178 34.6015 38.0354C35.0302 38.0531 35.4484 37.8995 35.7641 37.6084C36.0798 37.3173 36.267 36.9124 36.2847 36.483C36.3023 36.0536 36.149 35.6347 35.8583 35.3186L28.6829 27.583C28.5398 27.4211 28.3657 27.2896 28.1708 27.1964C27.976 27.1032 27.7644 27.0503 27.5487 27.0407C27.333 27.0311 27.1176 27.065 26.9153 27.1405C26.713 27.216 26.5279 27.3315 26.371 27.4801Z" fill="#194EFF"/>
<path d="M27.2248 7.27494C26.989 7.49328 26.8238 7.77724 26.7505 8.09033C26.6771 8.40343 26.6989 8.73134 26.8131 9.03193C26.9272 9.33252 27.1285 9.59205 27.3911 9.77716C27.6536 9.96227 27.9655 10.0645 28.2865 10.0707C29.2981 10.1197 30.2493 10.5673 30.9327 11.316C31.616 12.0647 31.976 13.0536 31.9342 14.0672C31.9263 14.2789 31.9601 14.4901 32.0338 14.6887C32.1074 14.8873 32.2193 15.0695 32.3633 15.2248C32.5072 15.3801 32.6802 15.5055 32.8725 15.5938C33.0648 15.6821 33.2726 15.7316 33.484 15.7395C33.6954 15.7474 33.9062 15.7135 34.1046 15.6397C34.3029 15.566 34.4847 15.4538 34.6398 15.3097C34.7948 15.1656 34.92 14.9922 35.0082 14.7996C35.0964 14.607 35.1458 14.3989 35.1537 14.1872C35.2121 13.2407 35.0783 12.2922 34.7604 11.3989C34.4426 10.5057 33.9471 9.68623 33.3042 8.99015C32.0332 7.61858 30.2731 6.80493 28.4064 6.72607C27.9557 6.74601 27.5311 6.94324 27.2248 7.27494Z" fill="#194EFF"/>
<path d="M27.3977 0.534099C27.1906 0.763659 27.0539 1.04804 27.0038 1.35332C26.9536 1.65859 26.9923 1.97186 27.115 2.25575C27.2378 2.53964 27.4395 2.78216 27.6961 2.95437C27.9527 3.12658 28.2534 3.22121 28.5622 3.22697C29.9562 3.28428 31.3251 3.61663 32.5906 4.20496C33.8561 4.79329 34.9931 5.62603 35.9366 6.65543C36.88 7.68482 37.6113 8.89062 38.0885 10.2037C38.5657 11.5167 38.7794 12.9112 38.7174 14.3072C38.6934 14.7511 38.8425 15.1871 39.1333 15.523C39.424 15.859 39.8336 16.0688 40.2757 16.1082C40.7299 16.1082 41.1655 15.9275 41.4867 15.6058C41.8078 15.2841 41.9882 14.8479 41.9882 14.393C42.0639 12.5716 41.7791 10.7532 41.1503 9.04245C40.5215 7.33172 39.5611 5.76244 38.3244 4.42493C37.0877 3.08743 35.5991 2.00811 33.9443 1.24911C32.2894 0.490105 30.5011 0.0664006 28.6821 0.002385C28.442 -0.0107117 28.2019 0.0302517 27.9797 0.122265C27.7574 0.214279 27.5586 0.355004 27.3977 0.534099Z" fill="#194EFF"/>
<path d="M24.3979 15.0275C24.2416 15.1716 24.1152 15.3452 24.0259 15.5383C23.9366 15.7314 23.8861 15.9402 23.8773 16.1528C23.8686 16.3654 23.9018 16.5777 23.9749 16.7775C24.0481 16.9773 24.1598 17.1607 24.3037 17.3173C24.4477 17.4738 24.621 17.6004 24.8138 17.6899C25.0065 17.7793 25.215 17.8299 25.4273 17.8387C25.6396 17.8474 25.8516 17.8142 26.051 17.7409C26.2505 17.6677 26.4336 17.5557 26.5899 17.4116L27.8743 16.2281C28.19 15.937 28.3772 15.5322 28.3949 15.1027C28.4126 14.6733 28.2592 14.2545 27.9685 13.9383C27.6778 13.6221 27.2736 13.4346 26.8449 13.4169C26.4162 13.3992 25.998 13.5528 25.6823 13.844L24.3979 15.0275Z" fill="#194EFF"/>
</svg>
