<svg width="48" height="48" viewBox="0 0 48 48" fill="none" xmlns="http://www.w3.org/2000/svg">
<path d="M41.6651 26.1308C40.5083 27.5999 39.4672 28.9995 38.3683 30.3414C35.5805 33.7423 32.3878 36.7268 28.9638 39.4799C28.3854 39.9426 27.6798 39.8963 27.2633 39.3989C26.8353 38.8899 26.9278 38.1612 27.5294 37.6869C30.4329 35.3733 33.186 32.8747 35.5805 30.0291C37.119 28.2014 38.5071 26.2464 39.9762 24.3609C40.1844 24.0833 40.1497 23.8866 39.9646 23.6206C36.6563 18.7043 32.6423 14.4243 28.0384 10.6995C27.4253 10.202 27.3211 9.53112 27.7376 8.999C28.1656 8.45532 28.8828 8.43219 29.5074 8.94117C33.9494 12.5503 37.8825 16.6452 41.1908 21.3302C41.2949 21.469 41.399 21.6078 41.5494 21.816C41.8733 21.2261 42.1972 20.6708 42.4864 20.104C43.8398 17.4897 44.9503 14.7944 45.4477 11.8794C45.7485 10.1789 45.8063 8.47846 45.3205 6.78957C44.6148 4.34879 42.9491 2.97224 40.5083 2.47483C38.1369 2.00055 35.8234 2.39385 33.5793 3.12262C31.8441 3.67787 30.1784 4.47604 28.4664 5.1354C28.1193 5.27421 27.6913 5.34361 27.3327 5.26264C26.8584 5.15853 26.6387 4.74209 26.604 4.25625C26.5693 3.75884 26.8122 3.38868 27.2402 3.18046C28.2003 2.71775 29.1488 2.26661 30.1321 1.86174C32.4572 0.91319 34.8633 0.242263 37.3735 0.0571798C39.3284 -0.0816325 41.2371 0.0803138 43.0416 0.90162C45.7253 2.11623 47.2291 4.25625 47.7381 7.1019C48.3396 10.3871 47.6456 13.522 46.5582 16.599C45.6906 19.0513 44.557 21.388 43.1804 23.5974C43.0069 23.8751 43.0069 24.0833 43.1804 24.3609C45.0313 27.4379 46.5813 30.6537 47.4026 34.1703C48.0042 36.7615 48.2818 39.3642 47.4721 41.9669C46.4541 45.2753 44.1521 47.1608 40.7975 47.7623C37.628 48.3292 34.5857 47.7045 31.6128 46.6518C30.1437 46.1313 28.7208 45.4488 27.298 44.8126C26.5693 44.4887 26.3148 43.8178 26.6387 43.1815C26.9278 42.5916 27.6335 42.4065 28.316 42.7535C30.4329 43.8409 32.6423 44.72 34.9558 45.2522C36.9339 45.7149 38.9235 45.8999 40.9363 45.4141C43.7473 44.7316 45.2626 42.58 45.575 39.931C45.9336 36.8771 45.1354 34.0199 44.0133 31.2437C43.3308 29.5085 42.4748 27.8543 41.6651 26.1308Z" fill="#194EFF"/>
<path d="M6.34882 26.1885C5.67789 27.542 4.96069 28.8954 4.33604 30.2835C3.43376 32.3078 2.7397 34.4132 2.43894 36.6226C2.23072 38.1495 2.21915 39.6533 2.64716 41.1456C3.39906 43.7136 5.34243 45.2868 7.99143 45.5876C10.7098 45.8999 13.2894 45.2984 15.7996 44.3961C17.1183 43.9218 18.3908 43.2972 19.6748 42.7188C20.5308 42.337 21.329 42.6956 21.4562 43.5401C21.5256 44.0143 21.3174 44.4539 20.8663 44.6853C17.5695 46.3395 14.157 47.6582 10.4206 47.9011C8.60451 48.0168 6.79995 47.8664 5.11107 47.1376C2.30013 45.9346 0.738491 43.7252 0.217945 40.7638C-0.325736 37.71 0.264214 34.7718 1.22433 31.8914C2.06877 29.3581 3.22554 26.9636 4.61366 24.6963C4.94913 24.1411 4.92599 23.7709 4.6021 23.2272C2.82067 20.2543 1.35158 17.1426 0.564976 13.7533C-0.0365436 11.1621 -0.3026 8.55938 0.507137 5.95664C1.57136 2.60201 3.93117 0.739616 7.36677 0.184367C10.4553 -0.324611 13.4282 0.276906 16.3202 1.29486C17.8124 1.81541 19.2352 2.50947 20.6927 3.13413C21.1555 3.33078 21.4099 3.72408 21.3984 4.22149C21.3868 4.70733 21.1554 5.13534 20.6812 5.22788C20.311 5.29728 19.8483 5.25102 19.5128 5.08907C17.6389 4.19836 15.7302 3.38862 13.7174 2.87964C11.9013 2.4285 10.062 2.15087 8.16494 2.33595C4.94913 2.64828 2.68186 4.93869 2.39267 8.14294C2.20759 10.1904 2.51991 12.1569 3.07516 14.1003C3.82706 16.7956 5.0301 19.3058 6.45293 21.7465C7.15855 20.8096 7.84105 19.8841 8.54668 18.9819C11.4733 15.2455 14.8048 11.9024 18.4833 8.91797C19.0154 8.48997 19.4781 8.43213 19.964 8.72132C20.392 8.97581 20.6002 9.38068 20.473 9.84339C20.392 10.1557 20.1722 10.4796 19.9293 10.6878C17.581 12.6081 15.3716 14.6787 13.3241 16.9112C11.3808 19.0281 9.6109 21.2838 7.99143 23.6668C7.80634 23.9444 7.89888 24.1064 8.0377 24.3261C11.3345 29.254 15.3485 33.534 19.964 37.2472C20.1606 37.4092 20.3573 37.5596 20.5539 37.7331C21.0745 38.1842 21.1555 38.8899 20.7506 39.3873C20.3341 39.8847 19.6517 39.9541 19.0964 39.5145C15.8922 36.9812 12.9193 34.1934 10.2818 31.0701C8.92841 29.5085 7.6791 27.8659 6.34882 26.1885Z" fill="#194EFF"/>
<path d="M15.1057 23.9329C15.1288 23.5164 15.3371 23.1463 15.7882 22.9496C16.3666 22.6836 16.945 22.4291 17.5234 22.1746C19.8947 21.1103 21.3291 19.2595 22.1042 16.8303C22.3587 16.0321 22.6131 15.234 22.8561 14.4358C23.0527 13.8111 23.446 13.4641 23.9781 13.4525C24.5218 13.441 24.9382 13.8111 25.1465 14.4474C25.5051 15.5579 25.8637 16.6684 26.257 17.7673C27.0436 19.9189 28.5936 21.3417 30.6411 22.2671C31.127 22.4869 31.6244 22.7183 32.1218 22.9149C32.6192 23.1231 32.8737 23.4933 32.8737 24.0138C32.8737 24.5344 32.5845 24.8583 32.1218 25.0665C31.3352 25.4251 30.537 25.7837 29.762 26.1886C28.0268 27.0908 26.8585 28.5137 26.1876 30.3414C25.7943 31.394 25.4704 32.4698 25.1465 33.534C24.9498 34.1587 24.5565 34.5289 23.9897 34.5404C23.4807 34.552 23.0527 34.1934 22.8561 33.615C22.4743 32.4814 22.1157 31.3246 21.7109 30.2026C20.9821 28.2129 19.594 26.8132 17.7084 25.8994C17.0838 25.5986 16.4476 25.321 15.8113 25.0434C15.3486 24.8351 15.1288 24.4765 15.1057 23.9329ZM23.9897 18.3804C23.0064 20.8559 21.3985 22.7414 18.9346 23.9791C21.4332 25.2169 22.9949 27.1487 23.9897 29.7167C24.9845 27.0908 26.5924 25.2169 29.0332 23.9676C26.5462 22.7414 24.9845 20.8327 23.9897 18.3804Z" fill="#194EFF"/>
</svg>
