<svg width="28" height="48" viewBox="0 0 28 48" fill="none" xmlns="http://www.w3.org/2000/svg">
<path d="M0.0117188 23.9369C0.0117188 17.0377 0.0117188 10.1384 0.0117188 3.23915C0.0117188 1.40324 1.39157 0 3.22747 0C10.3138 0 17.4119 0 24.4982 0C26.299 0 27.714 1.40324 27.7256 3.20406C27.7256 17.0845 27.7256 30.9765 27.7256 44.8569C27.7256 46.5174 26.299 47.9557 24.6385 47.9557C17.4586 47.9674 10.2787 47.9674 3.09884 47.9557C1.39157 47.9557 0.0234131 46.5057 0.0234131 44.7517C0.0117195 37.8173 0.0117188 30.8713 0.0117188 23.9369ZM2.13996 23.9837C2.13996 30.7894 2.13996 37.6068 2.13996 44.4126C2.13996 45.4767 2.49077 45.8392 3.5432 45.8392C10.4308 45.8392 17.3066 45.8392 24.1942 45.8392C25.2349 45.8392 25.5974 45.4767 25.5974 44.4126C25.5974 30.7894 25.5974 17.178 25.5974 3.55487C25.5974 2.50244 25.2349 2.12825 24.1942 2.12825C17.3066 2.12825 10.4308 2.12825 3.5432 2.12825C2.51416 2.12825 2.13996 2.49075 2.13996 3.5081C2.13996 10.3255 2.13996 17.1546 2.13996 23.9837Z" fill="#194EFF"/>
<path d="M15.7866 18.6514C16.8157 18.6514 17.3068 19.4699 16.9326 20.23C16.114 21.9022 15.2721 23.551 14.4418 25.2232C13.5297 27.0591 12.6176 28.895 11.6821 30.7309C11.2495 31.5729 10.2906 31.7015 9.78777 30.9882C9.50712 30.5906 9.5539 30.193 9.76438 29.772C10.887 27.5386 11.9979 25.3051 13.1088 23.0833C13.7402 21.8204 14.3834 20.5457 15.0148 19.2828C15.2253 18.8619 15.541 18.6514 15.7866 18.6514Z" fill="#194EFF"/>
<path d="M20.8729 25.5624C20.2181 24.9075 19.5749 24.2761 18.9435 23.6446C18.7564 23.4575 18.5576 23.2704 18.3822 23.0716C18.0314 22.6506 18.0548 22.0426 18.4173 21.6567C18.7798 21.2708 19.3878 21.2123 19.8322 21.528C19.9374 21.6099 20.031 21.7034 20.1245 21.797C21.0834 22.7559 22.054 23.7148 23.0129 24.6853C23.6209 25.3051 23.6209 25.8781 23.0129 26.4978C22.0189 27.4918 21.0366 28.4858 20.031 29.4797C19.61 29.889 19.1423 29.9709 18.6979 29.737C18.3003 29.5265 18.0547 29.1055 18.1483 28.6729C18.2068 28.4039 18.3705 28.1233 18.5693 27.9245C19.2124 27.2462 19.879 26.6031 20.5338 25.9366C20.639 25.8079 20.7326 25.7027 20.8729 25.5624Z" fill="#194EFF"/>
<path d="M6.81755 24.4748C7.68288 25.3401 8.47804 26.1119 9.24982 26.9071C9.86958 27.5502 9.64741 28.4623 8.84054 28.7196C8.43127 28.8482 8.06876 28.743 7.77642 28.4623C6.68891 27.3982 5.6131 26.3224 4.54898 25.2232C4.1397 24.8022 4.15139 24.2059 4.56067 23.7732C5.62479 22.6857 6.70061 21.5982 7.78812 20.5457C8.23247 20.1131 8.89901 20.1481 9.30829 20.5691C9.70587 20.9901 9.70587 21.6332 9.27321 22.0893C8.65345 22.7441 7.9986 23.3756 7.35545 24.0071C7.20343 24.1591 7.02803 24.2994 6.81755 24.4748Z" fill="#194EFF"/>
</svg>
