<svg width="48" height="48" viewBox="0 0 48 48" fill="none" xmlns="http://www.w3.org/2000/svg">
<path d="M24.8158 0C25.4436 0.174398 26.0947 0.279036 26.6877 0.523193C29.2571 1.58121 30.7569 3.51121 31.2104 6.25507C31.2685 6.63874 31.3964 6.87127 31.7801 7.04567C34.989 8.51061 37.5817 10.7313 39.5466 13.6612C39.8489 14.1146 39.7907 14.5448 39.3838 14.8006C39.0001 15.0563 38.6048 14.9517 38.2909 14.4983C36.5586 11.9404 34.3263 9.96393 31.5476 8.60362C31.4545 8.55712 31.3615 8.51061 31.2918 8.48736C31.0592 9.13844 30.8965 9.80116 30.6058 10.3941C29.3734 12.8706 27.362 14.2657 24.5949 14.5448C20.9325 14.9168 17.5957 12.2427 16.8749 8.78965C16.0843 5.02266 18.4445 1.15103 22.1882 0.23253C22.5021 0.151145 22.8277 0.0697591 23.1416 0C23.688 0 24.2577 0 24.8158 0ZM21.7115 7.73163C20.4675 6.1388 20.8279 4.44133 21.8743 3.42982C22.9788 2.36018 24.7228 2.2788 25.8971 3.20892C27.2922 4.31344 27.4434 5.83651 26.3621 7.6735C26.8621 8.05718 27.3853 8.40597 27.8154 8.84778C28.2456 9.28959 28.5595 9.82441 28.9316 10.3127C30.4779 8.01067 29.8966 4.63898 27.6178 2.77874C25.3622 0.941751 22.0138 1.1394 19.8978 3.22055C17.7701 5.31332 17.8631 8.60362 19.1421 10.3592C19.6885 9.17332 20.5489 8.31296 21.7115 7.73163ZM23.7229 13.0682C25.1181 13.1263 26.3737 12.7427 27.4899 11.9172C27.6759 11.7777 27.734 11.6498 27.6643 11.4172C27.176 9.83604 25.711 8.74314 24.0484 8.71989C22.4091 8.69664 20.9325 9.75465 20.3977 11.3126C20.3047 11.5916 20.3396 11.766 20.5837 11.9521C21.5255 12.6148 22.5603 13.0101 23.7229 13.0682ZM24.0136 7.20844C24.8739 7.20844 25.5715 6.53411 25.5831 5.68537C25.5948 4.79013 24.9088 4.06928 24.0252 4.06928C23.1532 4.06928 22.4207 4.76687 22.4324 5.61561C22.4324 6.53411 23.1183 7.20844 24.0136 7.20844Z" fill="#194EFF"/>
<path d="M8.46897 16.7886C9.8874 17.0444 11.0966 17.6258 12.1429 18.5326C15.7239 21.6369 15.3286 27.4618 11.364 30.0429C6.92264 32.9495 1.09776 30.473 0.121128 25.2644C-0.622969 21.3114 2.14414 17.4048 6.14367 16.8003C6.66686 16.7189 6.93427 16.5096 7.15517 16.0213C8.62011 12.8938 10.8175 10.3708 13.7009 8.4408C14.1078 8.17339 14.538 8.23153 14.7938 8.58032C15.0612 8.94074 14.9914 9.39418 14.5613 9.68484C13.4451 10.4406 12.4104 11.3009 11.4919 12.2892C10.2595 13.6146 9.24794 15.0912 8.46897 16.7886ZM12.1895 27.0549C13.5498 25.1016 13.4916 21.6718 11.0966 19.6139C8.75963 17.6025 5.27168 17.742 3.10914 19.9976C1.01637 22.1833 1.21402 25.3806 2.44643 27.0316C2.99288 25.8457 3.86487 24.997 5.00426 24.404C3.81836 22.9274 4.0974 21.1951 5.13216 20.1603C6.16692 19.1256 7.82951 18.9512 9.01541 19.765C9.64324 20.1952 10.0734 20.7765 10.2827 21.509C10.5966 22.5903 10.2943 23.5436 9.60837 24.4156C10.7943 25.0086 11.6314 25.8806 12.1895 27.0549ZM7.31794 29.7638C8.59686 29.7522 9.73626 29.3569 10.7826 28.6128C10.9803 28.4617 11.0501 28.3221 10.9687 28.0896C10.4804 26.5549 9.01541 25.4271 7.45746 25.4271C5.69023 25.4155 4.20203 26.4619 3.66722 28.0664C3.58583 28.3105 3.60908 28.45 3.82999 28.6012C4.87637 29.3685 6.0274 29.7638 7.31794 29.7638ZM7.31794 20.7765C6.43433 20.7765 5.75999 21.4392 5.74836 22.2996C5.74836 23.2181 6.4227 23.9273 7.30632 23.9273C8.14343 23.9273 8.87589 23.2181 8.88752 22.3926C8.91077 21.4974 8.20156 20.7765 7.31794 20.7765Z" fill="#194EFF"/>
<path d="M16.7935 39.5302C17.0493 38.1118 17.6074 36.8794 18.5608 35.833C19.8746 34.3913 21.479 33.5891 23.4323 33.4147C27.176 33.0659 30.4896 35.8097 31.1755 39.3442C31.9429 43.3088 29.1177 47.3433 25.1181 47.8897C20.9442 48.4594 17.3632 45.7388 16.7703 41.5184C16.7238 41.2161 16.6075 41.0882 16.3517 40.9719C13.0963 39.5186 10.492 37.2863 8.50385 34.3448C8.12017 33.7751 8.32945 33.1473 8.95728 33.0543C9.32933 32.9961 9.58511 33.217 9.78276 33.5077C10.7129 34.9029 11.8407 36.1237 13.1196 37.1933C14.2241 38.135 15.4449 38.8908 16.7935 39.5302ZM21.7116 41.1231C20.3629 39.3326 20.9442 37.6351 21.9441 36.7282C23.037 35.7284 24.781 35.6702 25.932 36.612C26.5133 37.077 26.8737 37.6932 27.0249 38.4141C27.2342 39.414 26.9202 40.2976 26.3389 41.0533C26.8389 41.4486 27.3621 41.7741 27.7806 42.2043C28.2108 42.6461 28.5363 43.181 28.9084 43.6693C30.2454 41.7858 30.1059 38.4257 27.8969 36.4027C25.7808 34.4611 22.3394 34.4146 20.2001 36.2981C17.7934 38.4141 17.7818 41.8207 19.1189 43.7507C19.7002 42.588 20.5489 41.716 21.7116 41.1231ZM23.9787 46.4713C25.2693 46.4713 26.5017 46.0643 27.4783 45.3319C27.676 45.1807 27.7341 45.0412 27.6527 44.797C27.1411 43.2275 25.7227 42.1578 24.095 42.1346C22.3859 42.1113 20.9442 43.1228 20.3861 44.704C20.2815 45.0063 20.3164 45.1807 20.5954 45.3667C21.6069 46.076 22.7347 46.4713 23.9787 46.4713ZM24.0136 40.6231C24.874 40.6231 25.5948 39.8906 25.5832 39.0419C25.5599 38.135 24.8624 37.4258 23.9904 37.4375C23.13 37.4491 22.4092 38.1816 22.4208 39.0187C22.444 39.9372 23.1416 40.6348 24.0136 40.6231Z" fill="#194EFF"/>
<path d="M39.5469 31.2055C38.0354 30.9497 36.7449 30.287 35.6636 29.2522C34.1173 27.7757 33.3616 25.9503 33.4197 23.811C33.5243 20.1719 36.1287 17.2188 39.7561 16.7537C44.1045 16.1957 47.4296 19.3697 47.9296 22.9855C48.4411 26.6828 46.0345 30.1359 42.5349 31.0427C42.3721 31.0892 42.1977 31.159 42.0349 31.1474C41.3606 31.1125 41.0816 31.4845 40.8025 32.0542C39.3608 35.1469 37.1518 37.5885 34.3382 39.5068C33.908 39.7975 33.4894 39.751 33.222 39.3673C32.9546 39.0069 33.0476 38.5651 33.4778 38.2628C34.8963 37.2978 36.1752 36.1816 37.2564 34.8446C38.1633 33.7517 38.919 32.5425 39.5469 31.2055ZM45.5694 27.0548C46.9995 24.9969 46.8134 21.5904 44.4416 19.579C42.1628 17.6374 38.6981 17.7885 36.5472 19.9627C34.3498 22.1949 34.6521 25.5201 35.7799 26.9851C36.1519 26.4968 36.4775 25.9619 36.9076 25.5201C37.3378 25.0899 37.8726 24.7528 38.361 24.3691C37.1402 22.8344 37.5355 21.1718 38.5121 20.1719C39.5352 19.1255 41.1862 18.9511 42.3954 19.765C43.0116 20.1836 43.4534 20.7416 43.6626 21.4625C43.9649 22.5437 43.7208 23.532 42.9999 24.4156C44.1742 25.0086 45.0229 25.8689 45.5694 27.0548ZM40.7211 29.7638C42.0117 29.7522 43.186 29.3569 44.1975 28.5663C44.3021 28.4849 44.3835 28.2756 44.3486 28.1477C43.9417 26.5898 42.4535 25.4504 40.8258 25.4271C39.0818 25.4039 37.5704 26.4503 37.0704 28.0315C36.989 28.2872 37.0239 28.4616 37.2681 28.6244C38.2912 29.3685 39.4422 29.7638 40.7211 29.7638ZM42.2675 22.381C42.2791 21.4741 41.628 20.7881 40.7444 20.7765C39.8608 20.7649 39.1283 21.4508 39.1167 22.2996C39.105 23.1948 39.8143 23.9157 40.6979 23.9157C41.5582 23.9157 42.2675 23.2181 42.2675 22.381Z" fill="#194EFF"/>
<path d="M20.8162 26.5085C20.293 26.4038 19.8861 26.4968 19.5141 26.834C19.142 27.1712 18.7118 27.4502 18.3165 27.7641C18.0375 27.985 17.7352 28.0897 17.398 27.9385C17.0492 27.7758 16.9795 27.4619 16.9795 27.1131C16.9795 24.9156 16.9795 22.7182 16.9795 20.5208C16.9795 19.5326 17.712 18.7652 18.7118 18.7536C21.1534 18.742 23.5834 18.742 26.0249 18.7536C27.0132 18.7652 27.734 19.5209 27.7689 20.5208C27.7805 20.9394 27.7689 21.3696 27.7689 21.8462C28.42 21.8462 29.0362 21.8462 29.6524 21.8462C30.8964 21.8462 31.6056 22.5555 31.6056 23.8111C31.6056 25.9155 31.6056 28.0199 31.6056 30.1243C31.6056 30.4964 31.5708 30.8452 31.1755 31.0428C30.7918 31.2405 30.4895 31.0544 30.1872 30.8335C29.6524 30.4266 29.1525 29.8569 28.5479 29.6593C27.92 29.45 27.1759 29.6011 26.49 29.6011C25.2343 29.6011 23.9903 29.6011 22.7346 29.6011C21.5371 29.6011 20.8162 28.8919 20.8162 27.6944C20.8162 27.2875 20.8162 26.9038 20.8162 26.5085ZM18.4909 25.6946C18.6537 25.5784 18.7583 25.5202 18.8397 25.4388C19.235 25.0552 19.7001 24.9389 20.2582 24.9389C22.0952 24.9622 23.9321 24.9389 25.7691 24.9505C26.1412 24.9505 26.2574 24.8343 26.2458 24.4738C26.2342 23.2182 26.2226 21.9741 26.2458 20.7185C26.2574 20.3348 26.1063 20.2302 25.7575 20.2418C24.56 20.2534 23.3624 20.2418 22.1649 20.2418C21.0836 20.2418 20.0024 20.2418 18.9327 20.2418C18.7235 20.2418 18.4909 20.2069 18.4909 20.5441C18.4909 22.2415 18.4909 23.9274 18.4909 25.6946ZM27.7573 23.3461C27.7573 23.8228 27.7573 24.2413 27.7573 24.6599C27.7456 25.6946 27.0015 26.4503 25.9668 26.462C25.2924 26.4736 24.6065 26.462 23.9321 26.462C23.409 26.462 22.8741 26.462 22.3161 26.462C22.3161 26.8456 22.3161 27.1712 22.3161 27.4967C22.3161 28.0548 22.3161 28.0548 22.8625 28.0548C24.7925 28.0548 26.7225 28.0432 28.6525 28.0664C28.9083 28.0664 29.1757 28.206 29.4082 28.3222C29.6291 28.4385 29.8152 28.6245 30.0709 28.8105C30.0709 27.0433 30.0709 25.3691 30.0709 23.6832C30.0709 23.4275 29.9663 23.3228 29.7105 23.3228C29.0943 23.3577 28.4549 23.3461 27.7573 23.3461Z" fill="#194EFF"/>
</svg>
