<svg width="49" height="49" viewBox="0 0 49 49" fill="none" xmlns="http://www.w3.org/2000/svg">
<path d="M24.1428 48.0913C17.26 48.0913 10.3772 48.0913 3.50411 48.0913C1.52651 48.0913 0.169335 46.4634 0.169335 44.0797C0.169335 30.8008 0.188725 17.5219 0.149949 4.25462C0.140255 1.98721 1.64284 0.150024 3.58166 0.150024C17.2988 0.196535 31.016 0.184908 44.7331 0.150024C46.5944 0.150024 48.1357 1.9407 48.126 4.24299C48.0873 17.4986 48.0873 30.7659 48.126 44.0216C48.1357 46.2774 46.6332 48.1378 44.6943 48.1262C37.8503 48.0564 30.9966 48.0913 24.1428 48.0913ZM2.29235 10.4987C2.29235 10.7313 2.29235 10.9057 2.29235 11.0801C2.29235 22.0335 2.29235 32.9868 2.29235 43.9285C2.29235 45.0681 2.6898 45.5332 3.64952 45.5332C17.3085 45.5332 30.9675 45.5332 44.6265 45.5332C45.6056 45.5332 45.9837 45.0681 45.9837 43.882C45.9837 32.9519 45.9837 22.0102 45.9837 11.0801C45.9837 10.8941 45.9837 10.708 45.9837 10.4987C31.4037 10.4987 16.882 10.4987 2.29235 10.4987ZM45.9837 7.85923C45.9837 6.6732 45.9837 5.55693 45.9837 4.4523C45.9837 3.16161 45.625 2.73139 44.5489 2.73139C30.9481 2.73139 17.357 2.73139 3.75615 2.73139C3.70768 2.73139 3.66891 2.73139 3.62044 2.73139C2.6898 2.73139 2.29234 3.20812 2.28265 4.30113C2.28265 5.336 2.28265 6.35925 2.28265 7.39412C2.28265 7.54528 2.29234 7.70807 2.30204 7.87086C16.882 7.85923 31.4037 7.85923 45.9837 7.85923Z" fill="#194EFF" stroke="#194EFF" stroke-width="0.3"/>
<path d="M26.8827 30.9105C25.8221 31.9389 24.7993 32.9201 23.769 33.9216C23.769 29.7881 23.769 25.695 23.769 21.5951C23.7993 21.5817 23.8372 21.5683 23.8675 21.5548C27.2539 24.3373 30.6403 27.1266 34.1024 29.9763C32.519 29.936 31.0342 29.9024 29.4887 29.8688C29.5493 30.0032 29.5872 30.0973 29.6327 30.1914C30.3372 31.6162 31.0645 33.0344 31.7312 34.466C31.86 34.7483 31.8827 35.1112 31.8145 35.4136C31.6933 35.9446 31.1706 36.2807 30.5645 36.3143C29.9963 36.3479 29.413 36.032 29.1554 35.5279C28.6175 34.466 28.1024 33.3906 27.5721 32.322C27.3524 31.8649 27.1251 31.4079 26.8827 30.9105Z" fill="#194EFF" stroke="#194EFF" stroke-width="0.3"/>
<path d="M6.19174 3.94739C7.02987 3.94739 7.69286 4.60562 7.69286 5.45745C7.69286 6.27056 6.96732 7.00623 6.19174 6.99333C5.40366 6.98042 4.75318 6.28347 4.74067 5.48327C4.72816 4.59271 5.34111 3.94739 6.19174 3.94739Z" fill="#194EFF" stroke="#194EFF" stroke-width="0.3"/>
<path d="M16.5503 5.47008C16.5503 6.34757 15.8886 7.01858 15.0615 6.99278C14.2471 6.96697 13.6108 6.30885 13.5981 5.48299C13.5854 4.6055 14.2089 3.96029 15.0869 3.94739C15.9522 3.94739 16.5503 4.56679 16.5503 5.47008Z" fill="#194EFF" stroke="#194EFF" stroke-width="0.3"/>
<path d="M9.16943 5.46996C9.16943 4.56667 9.7701 3.94727 10.6391 3.94727C11.5082 3.94727 12.1344 4.59247 12.1216 5.46996C12.1088 6.30873 11.4698 6.96684 10.6519 6.99265C9.834 7.01846 9.16943 6.34744 9.16943 5.46996Z" fill="#194EFF" stroke="#194EFF" stroke-width="0.3"/>
</svg>
