<svg width="48" height="47" viewBox="0 0 48 47" fill="none" xmlns="http://www.w3.org/2000/svg">
<path d="M23.9929 46.4661C17.1101 46.4661 10.2273 46.4661 3.35421 46.4661C1.37661 46.4661 0.0194331 44.8883 0.0194331 42.578C0.0194331 29.7077 0.038823 16.8374 4.66418e-05 3.9783C-0.00964746 1.78066 1.49294 0 3.43176 0C17.1489 0.0450799 30.8661 0.0338099 44.5832 0C46.4445 0 47.9858 1.73558 47.9761 3.96703C47.9374 16.8148 47.9374 29.6739 47.9761 42.5216C47.9858 44.708 46.4832 46.5112 44.5444 46.4999C37.7004 46.4323 30.8467 46.4661 23.9929 46.4661ZM2.14244 10.0303C2.14244 10.2557 2.14244 10.4247 2.14244 10.5938C2.14244 21.2101 2.14244 31.8264 2.14244 42.4315C2.14244 43.5359 2.5399 43.9867 3.49962 43.9867C17.1586 43.9867 30.8176 43.9867 44.4766 43.9867C45.4557 43.9867 45.8337 43.5359 45.8337 42.3864C45.8337 31.7926 45.8337 21.1876 45.8337 10.5938C45.8337 10.4135 45.8337 10.2331 45.8337 10.0303C31.2538 10.0303 16.7321 10.0303 2.14244 10.0303ZM45.8337 7.472C45.8337 6.32246 45.8337 5.24054 45.8337 4.16989C45.8337 2.91893 45.4751 2.50193 44.399 2.50193C30.7982 2.50193 17.2071 2.50193 3.60625 2.50193C3.55778 2.50193 3.519 2.50193 3.47053 2.50193C2.5399 2.50193 2.14244 2.964 2.13275 4.02338C2.13275 5.02641 2.13275 6.01817 2.13275 7.0212C2.13275 7.16771 2.14244 7.32549 2.15213 7.48327C16.7321 7.472 31.2538 7.472 45.8337 7.472Z" fill="#194EFF"/>
<path d="M6.04209 3.6803C6.88021 3.6803 7.5432 4.31828 7.5432 5.1439C7.5432 5.93199 6.81766 6.64503 6.04209 6.63252C5.254 6.62001 4.60352 5.9445 4.59101 5.16892C4.5785 4.30577 5.19145 3.6803 6.04209 3.6803Z" fill="#194EFF"/>
<path d="M16.4001 5.15614C16.4001 6.00663 15.7384 6.657 14.9113 6.63198C14.0969 6.60697 13.4607 5.9691 13.4479 5.16865C13.4352 4.31816 14.0587 3.6928 14.9368 3.6803C15.8021 3.6803 16.4001 4.28064 16.4001 5.15614Z" fill="#194EFF"/>
<path d="M9.01953 5.15614C9.01953 4.28064 9.62019 3.6803 10.4892 3.6803C11.3583 3.6803 11.9845 4.30565 11.9717 5.15614C11.9589 5.9691 11.3199 6.60697 10.502 6.63198C9.68409 6.657 9.01953 6.00663 9.01953 5.15614Z" fill="#194EFF"/>
<path d="M25.8042 25.6738C24.7192 25.6738 23.6854 25.6738 22.6107 25.6738C22.6107 25.8171 22.6107 25.9502 22.6107 26.073C22.6107 27.4548 22.5697 28.8469 22.6209 30.2287C22.6823 31.8561 21.3619 32.9923 19.888 32.9718C16.3669 32.9206 12.8356 32.9616 9.31457 32.9513C7.70757 32.9513 6.64307 31.8868 6.64307 30.2798C6.64307 26.6974 6.64307 23.1149 6.64307 19.5222C6.64307 18.1097 7.73828 16.994 9.1508 16.9838C12.8049 16.9735 16.4693 16.9735 20.1234 16.9838C21.495 16.9838 22.58 18.0483 22.6004 19.4301C22.6209 20.904 22.6107 22.3677 22.6107 23.8416C22.6107 23.9747 22.6107 24.1078 22.6107 24.2613C23.6854 24.2613 24.7192 24.2613 25.8042 24.2613C25.8042 24.1282 25.8042 23.9952 25.8042 23.8723C25.8042 22.4189 25.8042 20.9552 25.8042 19.5017C25.8042 18.0892 26.8789 17.0042 28.2914 16.994C31.9456 16.9838 35.6099 16.9838 39.264 16.994C40.6561 16.994 41.7513 18.0687 41.7615 19.5017C41.782 23.1558 41.782 26.8202 41.7615 30.4743C41.7513 31.8766 40.6151 32.9513 39.2231 32.9513C35.5894 32.9616 31.9558 32.9513 28.3221 32.9513C26.9199 32.9513 25.8246 31.8766 25.8042 30.4743C25.7837 29.0209 25.8042 27.5572 25.7939 26.1037C25.8042 25.9706 25.8042 25.8376 25.8042 25.6738ZM27.186 24.9471C27.186 26.7485 27.186 28.5398 27.186 30.3413C27.186 31.1396 27.6364 31.5798 28.4347 31.5798C31.9967 31.5798 35.5587 31.5798 39.1105 31.5798C39.9191 31.5798 40.39 31.1192 40.39 30.3208C40.4002 26.7588 40.4002 23.1968 40.39 19.645C40.39 18.8159 39.9191 18.3758 39.09 18.3758C35.5587 18.3758 32.0172 18.3758 28.4859 18.3758C27.6159 18.3758 27.1962 18.8057 27.186 19.6655C27.186 21.426 27.186 23.1865 27.186 24.9471ZM21.2288 25.0085C21.2288 23.2275 21.2288 21.4363 21.2288 19.6553C21.2288 18.8057 20.7887 18.3656 19.9596 18.3656C16.3976 18.3656 12.8356 18.3656 9.28386 18.3656C8.50595 18.3656 8.03511 18.8262 8.03511 19.6041C8.02488 23.1763 8.02488 26.7485 8.03511 30.3208C8.03511 31.1294 8.50595 31.5798 9.31457 31.5798C12.8663 31.5798 16.4079 31.5798 19.9596 31.5798C20.799 31.5798 21.2391 31.1396 21.2391 30.3003C21.2391 28.5398 21.2288 26.769 21.2288 25.0085Z" fill="#194EFF" stroke="#194EFF" stroke-miterlimit="10"/>
<path d="M14.6576 37.5064C12.8869 37.5064 11.1059 37.5064 9.33512 37.5064C8.79263 37.5064 8.48556 37.271 8.47532 36.8411C8.46509 36.4112 8.80286 36.1246 9.34535 36.1246C11.8531 36.1246 14.3506 36.1246 16.8583 36.1246C17.8921 36.1246 18.9259 36.1246 19.9597 36.1246C20.4715 36.1246 20.7478 36.3498 20.7888 36.7592C20.8297 37.2096 20.5431 37.5064 20.0621 37.5064C18.2504 37.5064 16.4591 37.5064 14.6576 37.5064Z" fill="#194EFF" stroke="#194EFF" stroke-miterlimit="10"/>
<path d="M33.7779 37.5063C31.9661 37.5063 30.1544 37.5063 28.3427 37.5063C28.005 37.5063 27.7695 37.3732 27.6672 37.0662C27.5648 36.7796 27.6058 36.4827 27.8617 36.3087C28.0561 36.1859 28.312 36.1245 28.5474 36.1245C30.1544 36.1143 31.7512 36.1143 33.3582 36.1143C35.2211 36.1143 37.0737 36.1143 38.9366 36.1143C39.0594 36.1143 39.1823 36.1143 39.2949 36.1245C39.694 36.1859 39.9704 36.5134 39.9397 36.8819C39.909 37.2504 39.6224 37.4961 39.213 37.4961C37.4013 37.5063 35.5896 37.5063 33.7779 37.5063Z" fill="#194EFF" stroke="#194EFF" stroke-miterlimit="10"/>
<path d="M33.7162 24.0566C34.5043 23.2685 35.2106 22.5622 35.9168 21.8559C36.2955 21.4772 36.6947 21.4363 37.0018 21.7433C37.2986 22.0402 37.2577 22.4803 36.8994 22.8386C36.1932 23.5448 35.4869 24.2511 34.7704 24.9676C35.4767 25.6738 36.1727 26.3596 36.8585 27.0659C36.9916 27.1989 37.1246 27.3627 37.1758 27.5367C37.2577 27.8335 37.1758 28.1304 36.879 28.2941C36.5719 28.4579 36.2648 28.4374 36.0089 28.1816C35.3743 27.5469 34.7397 26.9123 34.1051 26.2675C34.013 26.1754 33.9311 26.0628 33.7673 25.8785C33.6036 26.073 33.4807 26.247 33.3272 26.4006C32.754 26.984 32.1808 27.5572 31.6076 28.1304C31.2801 28.4477 30.8399 28.4682 30.5738 28.1918C30.277 27.895 30.2872 27.4958 30.625 27.158C31.3415 26.4313 32.058 25.7148 32.8359 24.9266C32.6209 24.7321 32.406 24.5377 32.2013 24.3432C31.669 23.8212 31.147 23.2992 30.625 22.7771C30.2872 22.4394 30.277 22.0402 30.5636 21.7433C30.8502 21.4465 31.2596 21.4567 31.5974 21.7945C32.2422 22.4394 32.8871 23.0842 33.5217 23.7291C33.6036 23.8212 33.6547 23.944 33.7162 24.0566Z" fill="#194EFF" stroke="#194EFF" stroke-miterlimit="10"/>
<path d="M14.6983 25.8991C13.9 26.6975 13.1937 27.4139 12.467 28.11C12.3032 28.2635 12.0371 28.3966 11.8426 28.3761C11.6481 28.3556 11.4025 28.1714 11.2899 27.9871C11.1363 27.7415 11.1978 27.4447 11.4127 27.2195C11.8221 26.7998 12.2316 26.3904 12.6512 25.981C12.9788 25.6534 13.3063 25.3361 13.6543 24.9983C12.9378 24.2818 12.2418 23.5756 11.5458 22.8693C11.4229 22.7465 11.3001 22.5827 11.2489 22.419C11.167 22.1221 11.2387 21.8355 11.5458 21.6718C11.8733 21.4977 12.1906 21.5489 12.4465 21.8151C13.0811 22.4394 13.7055 23.074 14.3299 23.6984C14.422 23.7905 14.5039 23.9031 14.6165 24.026C15.292 23.3504 15.9369 22.7158 16.5715 22.0709C16.6636 21.9788 16.7557 21.8765 16.8581 21.7843C17.1651 21.508 17.6155 21.508 17.8816 21.7741C18.158 22.0505 18.1375 22.4599 17.8202 22.7772C17.1856 23.422 16.551 24.0464 15.9061 24.681C15.814 24.7732 15.681 24.8346 15.5581 24.9164C16.3668 25.7251 17.1037 26.462 17.8304 27.1888C18.0454 27.4037 18.1785 27.6801 18.0045 27.9462C17.8816 28.1407 17.6564 28.3454 17.4517 28.3761C17.2573 28.4068 16.9809 28.2737 16.8171 28.1202C16.1723 27.5163 15.5581 26.8715 14.9338 26.2368C14.8314 26.1447 14.7802 26.0117 14.6983 25.8991Z" fill="#194EFF" stroke="#194EFF" stroke-miterlimit="10"/>
</svg>
