<svg width="47" height="43" viewBox="0 0 47 43" fill="none" xmlns="http://www.w3.org/2000/svg">
<path d="M20.4006 0.500606C11.7651 0.500606 4.40511 5.97605 1.6556 13.6191V13.621V13.623C0.908779 15.6987 0.5 17.9347 0.5 20.2642C0.5 31.1721 9.41868 40.0279 20.4006 40.0279C22.5487 40.0279 24.683 39.6823 26.7207 39.0046V39.0066C27.0961 38.8797 27.2965 38.4754 27.1708 38.1025C27.047 37.7295 26.6401 37.5264 26.2648 37.6494C25.5808 37.8759 24.8851 38.0634 24.1835 38.2099C24.9166 37.4561 25.5887 36.4895 26.1862 35.351H26.1842C26.365 35.0015 26.2274 34.5738 25.8776 34.3922C25.5258 34.2126 25.0954 34.3453 24.9107 34.6929C23.5212 37.3467 21.8861 38.6004 20.4004 38.6004C19.5062 38.6004 18.6179 38.1844 17.7374 37.3135C16.857 36.4406 16.0119 35.1225 15.3025 33.4588C14.5753 31.758 13.9877 29.6998 13.5828 27.4035H22.9317C23.1223 27.4015 23.3051 27.3273 23.4407 27.1926C23.5743 27.0578 23.6509 26.8743 23.649 26.6849C23.649 26.2924 23.3267 25.9741 22.9316 25.9741H13.3589C13.1132 24.1756 12.9776 22.256 12.9776 20.2642C12.9776 18.2704 13.1132 16.3528 13.3589 14.5543H27.436C27.605 15.7825 27.7229 17.0694 27.7799 18.4031H27.7819C27.7996 18.7956 28.1356 19.1002 28.5307 19.0846C28.7213 19.0768 28.9001 18.9929 29.0299 18.8542C29.1596 18.7156 29.2283 18.5301 29.2205 18.3407C29.1655 17.0343 29.0534 15.7689 28.8942 14.5543H37.9503C38.5418 16.3509 38.8622 18.2684 38.8622 20.2642C38.8622 20.7758 38.8425 21.2875 38.7993 21.7991H38.7953C38.7796 21.9885 38.8386 22.1759 38.9624 22.3224C39.0862 22.4689 39.2631 22.5587 39.4537 22.5743C39.6444 22.5899 39.833 22.5294 39.9785 22.4064C40.1239 22.2833 40.2143 22.1076 40.23 21.9201C40.2772 21.3694 40.2988 20.8168 40.2988 20.2642C40.2988 17.9385 39.892 15.7065 39.1471 13.6325C39.1432 13.6188 39.1373 13.6051 39.1334 13.5915C36.3761 5.96195 29.0258 0.5 20.4025 0.5L20.4006 0.500606ZM20.4006 1.92808C21.2319 1.92808 22.0554 2.28543 22.8847 3.04507C23.7121 3.80467 24.512 4.96459 25.2096 6.44091C26.0625 8.24721 26.7563 10.53 27.2162 13.1271H13.5828C13.9877 10.8327 14.5753 8.77641 15.3025 7.07579C16.0139 5.41206 16.857 4.08806 17.7374 3.21713C18.6179 2.34425 19.5042 1.93028 20.4004 1.93028L20.4006 1.92808ZM24.1857 2.31277C30.1717 3.54888 35.0871 7.65724 37.412 13.1252H28.6805C28.2069 10.3269 27.464 7.8467 26.5128 5.83359C25.8407 4.41002 25.0663 3.2169 24.1859 2.31082L24.1857 2.31277ZM16.6174 2.31472C15.5974 3.36142 14.7189 4.7908 13.9819 6.51506C13.1761 8.4014 12.5433 10.6451 12.1228 13.1273H3.3852C5.71013 7.65934 10.631 3.55314 16.6156 2.31687L16.6174 2.31472ZM2.85271 14.5544H11.9067C11.6689 16.3626 11.5431 18.2763 11.5431 20.2643C11.5431 22.2502 11.6689 24.1678 11.9067 25.9742H2.85271C2.26115 24.1776 1.94081 22.2581 1.94081 20.2643C1.94081 18.2705 2.26116 16.3529 2.85271 14.5544ZM23.8265 19.282C23.6024 19.2859 23.3941 19.3952 23.2605 19.5729C23.1288 19.7526 23.0875 19.983 23.1504 20.1958L29.3488 41.2993C29.4195 41.5414 29.616 41.7269 29.8617 41.7875C30.1073 41.8499 30.3687 41.7777 30.5476 41.598L35.1051 37.0696L40.3566 42.2891C40.4922 42.4238 40.6749 42.5 40.8656 42.5C41.0581 42.5 41.2409 42.4238 41.3746 42.2891L46.2878 37.4072C46.4234 37.2725 46.5 37.0909 46.5 36.9015C46.5 36.7121 46.4234 36.5305 46.2878 36.3957L41.0348 31.1817L45.5922 26.6533H45.5942C45.7731 26.4756 45.8458 26.2159 45.7829 25.9718C45.722 25.7277 45.5333 25.5344 45.2916 25.4622L24.0431 19.3088C23.9724 19.2893 23.8992 19.28 23.8265 19.282ZM24.8975 21.0453L43.721 26.4952L39.5133 30.6761C39.3777 30.8108 39.3011 30.9924 39.3011 31.1818C39.3011 31.3732 39.3777 31.5548 39.5133 31.6876L44.7608 36.9016L40.8675 40.7758L35.6145 35.5578H35.6126C35.4789 35.4231 35.2962 35.3469 35.1036 35.3469C34.9129 35.3469 34.7302 35.4231 34.5965 35.5578L30.3889 39.7387L24.8975 21.0453ZM3.38746 27.4035H12.125C12.5456 29.8855 13.1784 32.1272 13.9842 34.0138C14.7192 35.7361 15.5977 37.1675 16.6177 38.2141C10.6331 36.978 5.71421 32.8696 3.38933 27.4037L3.38746 27.4035Z" fill="#194EFF" stroke="#194EFF"/>
</svg>
